# xmcd
#
# Track frame offsets: 
#        150
#        19992
#        37162
#        56762
#        71200
#        87000
#        97257
#        115465
#        133065
#        151385
#
# Disc length: 2262 seconds
#
# Revision: 0
# Processed by: cddbd v1.5.2PL0 Copyright (c) Steve Scherf et al.
# Submitted via: ExactAudioCopy v0.99pb3
#
DISCID=9408d40a
DTITLE=El Gran Combo - De Ayer, Hoy, Mañana y Siempre
DYEAR=1982
DGENRE=Salsa
TTITLE0=La muerte
TTITLE1=Acangana
TTITLE2=Ojos chinos
TTITLE3=El caballo pelotero
TTITLE4=La calle dolor
TTITLE5=Milonga sentimental
TTITLE6=Falsaria
TTITLE7=Ponme alcolado Juana
TTITLE8=Por el pecho no
TTITLE9=Don Goyo
EXTD=
EXTT0=
EXTT1=
EXTT2=
EXTT3=
EXTT4=
EXTT5=
EXTT6=
EXTT7=
EXTT8=
EXTT9=
PLAYORDER=
